<svg width="209" height="12" viewBox="0 0 209 12" fill="none" xmlns="http://www.w3.org/2000/svg">
<path d="M4.70634 9.45098C4.04768 9.45098 3.43234 9.33398 2.86034 9.09998C2.29701 8.85732 1.79868 8.52365 1.36534 8.09898C0.93201 7.66565 0.59401 7.16732 0.351344 6.60398C0.117344 6.03198 0.0003438 5.41665 0.0003438 4.75798C0.0003438 4.09932 0.117344 3.48832 0.351344 2.92498C0.59401 2.35298 0.93201 1.85032 1.36534 1.41698C1.79868 0.98365 2.29701 0.649983 2.86034 0.415983C3.43234 0.173317 4.04768 0.0519832 4.70634 0.0519832C5.35634 0.0519832 5.96734 0.173317 6.53934 0.415983C7.11134 0.649983 7.60968 0.98365 8.03434 1.41698C8.45901 1.85032 8.79268 2.35298 9.03534 2.92498C9.27801 3.48832 9.39934 4.09932 9.39934 4.75798C9.39934 5.41665 9.27801 6.03198 9.03534 6.60398C8.79268 7.16732 8.45901 7.66565 8.03434 8.09898C7.60968 8.52365 7.11134 8.85732 6.53934 9.09998C5.96734 9.33398 5.35634 9.45098 4.70634 9.45098ZM4.68034 7.33198C4.21234 7.33198 3.79634 7.22365 3.43234 7.00698C3.06834 6.79032 2.78234 6.49132 2.57434 6.10998C2.36634 5.71998 2.26234 5.26932 2.26234 4.75798C2.26234 4.24665 2.36634 3.80032 2.57434 3.41898C2.78234 3.02898 3.06401 2.72565 3.41934 2.50898C3.78334 2.29232 4.19934 2.18398 4.66734 2.18398C5.09201 2.18398 5.49068 2.29665 5.86334 2.52198C6.24468 2.74732 6.52634 3.03765 6.70834 3.39298L6.87734 3.74398L6.08434 4.05598L5.91534 3.78298C5.80268 3.56632 5.62934 3.39298 5.39534 3.26298C5.16134 3.12432 4.91868 3.05498 4.66734 3.05498C4.22534 3.05498 3.86134 3.21532 3.57534 3.53598C3.29801 3.84798 3.15934 4.25532 3.15934 4.75798C3.15934 5.26065 3.30234 5.67232 3.58834 5.99298C3.87434 6.30498 4.23834 6.46098 4.68034 6.46098C4.94034 6.46098 5.18301 6.38732 5.40834 6.23998C5.64234 6.08398 5.82434 5.88465 5.95434 5.64198L6.08434 5.38198L6.91634 5.69398L6.76034 6.01898C6.56101 6.40898 6.27068 6.72532 5.88934 6.96798C5.50801 7.21065 5.10501 7.33198 4.68034 7.33198ZM4.70634 8.60598C5.43434 8.60598 6.08001 8.44132 6.64334 8.11198C7.21534 7.78265 7.66168 7.32765 7.98234 6.74698C8.31168 6.16632 8.47634 5.50332 8.47634 4.75798C8.47634 4.00398 8.31168 3.33665 7.98234 2.75598C7.66168 2.17532 7.21534 1.72032 6.64334 1.39098C6.08001 1.06165 5.43434 0.896983 4.70634 0.896983C3.97834 0.896983 3.32834 1.06165 2.75634 1.39098C2.18434 1.72032 1.73368 2.17532 1.40434 2.75598C1.08368 3.33665 0.923344 4.00398 0.923344 4.75798C0.923344 5.50332 1.08368 6.16632 1.40434 6.74698C1.73368 7.32765 2.18434 7.78265 2.75634 8.11198C3.32834 8.44132 3.97834 8.60598 4.70634 8.60598ZM15.0478 8.67098L13.9558 8.39798C13.9558 8.11198 14.0122 7.83032 14.1248 7.55298C14.2462 7.26698 14.4152 6.98532 14.6318 6.70798C14.8572 6.43065 15.1302 6.17065 15.4508 5.92798L17.3358 4.51098C17.5612 4.35498 17.7562 4.17732 17.9208 3.97798C18.0942 3.76998 18.2285 3.55765 18.3238 3.34098C18.4192 3.11565 18.4668 2.89898 18.4668 2.69098C18.4668 2.38765 18.3932 2.11465 18.2458 1.87198C18.0985 1.62065 17.8905 1.42132 17.6218 1.27398C17.3532 1.12665 17.0368 1.05298 16.6728 1.05298C16.3175 1.05298 16.0055 1.12232 15.7368 1.26098C15.4682 1.39098 15.2472 1.56865 15.0738 1.79398C14.9005 2.01065 14.7748 2.24465 14.6968 2.49598L13.5788 2.27498C13.6828 1.88498 13.8692 1.52098 14.1378 1.18298C14.4152 0.844983 14.7662 0.571983 15.1908 0.363983C15.6155 0.155983 16.0878 0.0519832 16.6078 0.0519832C17.2145 0.0519832 17.7388 0.168983 18.1808 0.402983C18.6228 0.628316 18.9652 0.940316 19.2078 1.33898C19.4592 1.72898 19.5848 2.17532 19.5848 2.67798C19.5848 3.15465 19.4548 3.60532 19.1948 4.02998C18.9348 4.45465 18.5578 4.86632 18.0638 5.26498L16.2828 6.61698C16.0315 6.79898 15.8105 6.99832 15.6198 7.21498C15.4378 7.43165 15.2948 7.66132 15.1908 7.90398C15.0955 8.13798 15.0478 8.39365 15.0478 8.67098ZM13.9558 9.30798V8.39798L14.7878 8.33298H19.7148V9.30798H13.9558ZM24.6366 9.46398C23.9432 9.46398 23.3279 9.26465 22.7906 8.86598C22.2532 8.45865 21.8329 7.90398 21.5296 7.20198C21.2262 6.49132 21.0746 5.67665 21.0746 4.75798C21.0746 3.83932 21.2262 3.02898 21.5296 2.32698C21.8329 1.61632 22.2489 1.06165 22.7776 0.662983C23.3149 0.25565 23.9346 0.0519832 24.6366 0.0519832C25.3386 0.0519832 25.9539 0.25565 26.4826 0.662983C27.0199 1.06165 27.4402 1.61632 27.7436 2.32698C28.0556 3.02898 28.2116 3.83932 28.2116 4.75798C28.2116 5.67665 28.0599 6.49132 27.7566 7.20198C27.4532 7.90398 27.0329 8.45865 26.4956 8.86598C25.9582 9.26465 25.3386 9.46398 24.6366 9.46398ZM24.6366 8.47598C25.1219 8.47598 25.5509 8.31565 25.9236 7.99498C26.3049 7.67432 26.5996 7.23665 26.8076 6.68198C27.0242 6.12732 27.1326 5.48598 27.1326 4.75798C27.1326 4.02998 27.0242 3.38865 26.8076 2.83398C26.5996 2.27065 26.3049 1.83298 25.9236 1.52098C25.5509 1.20032 25.1219 1.03998 24.6366 1.03998C24.1512 1.03998 23.7222 1.20032 23.3496 1.52098C22.9769 1.83298 22.6822 2.27065 22.4656 2.83398C22.2576 3.38865 22.1536 4.02998 22.1536 4.75798C22.1536 5.48598 22.2576 6.12732 22.4656 6.68198C22.6822 7.23665 22.9769 7.67432 23.3496 7.99498C23.7309 8.31565 24.1599 8.47598 24.6366 8.47598ZM30.6377 8.67098L29.5457 8.39798C29.5457 8.11198 29.602 7.83032 29.7147 7.55298C29.836 7.26698 30.005 6.98532 30.2217 6.70798C30.447 6.43065 30.72 6.17065 31.0407 5.92798L32.9257 4.51098C33.151 4.35498 33.346 4.17732 33.5107 3.97798C33.684 3.76998 33.8184 3.55765 33.9137 3.34098C34.009 3.11565 34.0567 2.89898 34.0567 2.69098C34.0567 2.38765 33.983 2.11465 33.8357 1.87198C33.6884 1.62065 33.4804 1.42132 33.2117 1.27398C32.943 1.12665 32.6267 1.05298 32.2627 1.05298C31.9074 1.05298 31.5954 1.12232 31.3267 1.26098C31.058 1.39098 30.837 1.56865 30.6637 1.79398C30.4904 2.01065 30.3647 2.24465 30.2867 2.49598L29.1687 2.27498C29.2727 1.88498 29.459 1.52098 29.7277 1.18298C30.005 0.844983 30.356 0.571983 30.7807 0.363983C31.2054 0.155983 31.6777 0.0519832 32.1977 0.0519832C32.8044 0.0519832 33.3287 0.168983 33.7707 0.402983C34.2127 0.628316 34.555 0.940316 34.7977 1.33898C35.049 1.72898 35.1747 2.17532 35.1747 2.67798C35.1747 3.15465 35.0447 3.60532 34.7847 4.02998C34.5247 4.45465 34.1477 4.86632 33.6537 5.26498L31.8727 6.61698C31.6214 6.79898 31.4004 6.99832 31.2097 7.21498C31.0277 7.43165 30.8847 7.66132 30.7807 7.90398C30.6854 8.13798 30.6377 8.39365 30.6377 8.67098ZM29.5457 9.30798V8.39798L30.3777 8.33298H35.3047V9.30798H29.5457ZM39.5634 9.46398C39.1214 9.46398 38.7184 9.39898 38.3544 9.26898C37.9991 9.13032 37.6914 8.95265 37.4314 8.73598C37.1801 8.51932 36.9807 8.28965 36.8334 8.04698L37.7434 7.53998C37.8387 7.66132 37.9557 7.79998 38.0944 7.95598C38.2417 8.10332 38.4281 8.22898 38.6534 8.33298C38.8787 8.43698 39.1561 8.48898 39.4854 8.48898C40.0747 8.48898 40.5471 8.31998 40.9024 7.98198C41.2577 7.64398 41.4354 7.21932 41.4354 6.70798C41.4354 6.31798 41.3271 5.98865 41.1104 5.71998C40.9024 5.45132 40.5991 5.24765 40.2004 5.10898C39.8017 4.97032 39.3251 4.90098 38.7704 4.90098H38.5234V4.04298H38.7444C39.2904 4.04298 39.7931 4.10365 40.2524 4.22498C40.7117 4.34632 41.1104 4.52398 41.4484 4.75798C41.7951 4.99198 42.0594 5.27798 42.2414 5.61598C42.4321 5.95398 42.5274 6.34398 42.5274 6.78598C42.5274 7.32332 42.3931 7.79565 42.1244 8.20298C41.8644 8.60165 41.5091 8.91365 41.0584 9.13898C40.6077 9.35565 40.1094 9.46398 39.5634 9.46398ZM38.5234 4.80998V3.96498H38.7704C39.5157 3.96498 40.1051 3.83932 40.5384 3.58798C40.9804 3.32798 41.2014 2.95965 41.2014 2.48298C41.2014 2.22298 41.1321 1.98465 40.9934 1.76798C40.8547 1.54265 40.6511 1.36498 40.3824 1.23498C40.1224 1.09632 39.8191 1.02698 39.4724 1.02698C39.2384 1.02698 39.0174 1.06165 38.8094 1.13098C38.6101 1.19165 38.4237 1.28698 38.2504 1.41698C38.0857 1.53832 37.9341 1.69432 37.7954 1.88498L36.9374 1.39098C37.1021 1.12232 37.3101 0.888316 37.5614 0.688983C37.8214 0.489649 38.1161 0.333649 38.4454 0.220983C38.7747 0.108316 39.1344 0.0519832 39.5244 0.0519832C40.0531 0.0519832 40.5254 0.155983 40.9414 0.363983C41.3661 0.571983 41.6997 0.857983 41.9424 1.22198C42.1851 1.57732 42.3064 1.98032 42.3064 2.43098C42.3064 2.81232 42.2154 3.15032 42.0334 3.44498C41.8514 3.73965 41.5957 3.99098 41.2664 4.19898C40.9457 4.40698 40.5687 4.56298 40.1354 4.66698C39.7107 4.76232 39.2471 4.80998 38.7444 4.80998H38.5234ZM50.3276 9.30798V8.29398C50.7869 8.29398 51.2116 8.20732 51.6016 8.03398C51.9916 7.85198 52.3339 7.59632 52.6286 7.26698C52.9319 6.93765 53.1659 6.56065 53.3306 6.13598C53.5039 5.70265 53.5906 5.24332 53.5906 4.75798C53.5906 4.27265 53.5039 3.81765 53.3306 3.39298C53.1659 2.95965 52.9319 2.57832 52.6286 2.24898C52.3339 1.91965 51.9916 1.66832 51.6016 1.49498C51.2116 1.31298 50.7869 1.22198 50.3276 1.22198V0.207983C51.1856 0.207983 51.9396 0.402983 52.5896 0.792983C53.2483 1.17432 53.7639 1.70732 54.1366 2.39198C54.5093 3.07665 54.6956 3.86532 54.6956 4.75798C54.6956 5.64198 54.5093 6.42632 54.1366 7.11098C53.7639 7.79565 53.2483 8.33298 52.5896 8.72298C51.9396 9.11298 51.1856 9.30798 50.3276 9.30798ZM48.4426 9.30798V8.29398H50.3276V9.30798H48.4426ZM47.5586 9.30798V0.207983H48.6636V9.30798H47.5586ZM48.4426 1.22198V0.207983H50.3276V1.22198H48.4426ZM59.0568 9.46398C58.4241 9.46398 57.8651 9.32098 57.3798 9.03498C56.8945 8.74032 56.5131 8.33732 56.2358 7.82598C55.9671 7.31465 55.8328 6.72532 55.8328 6.05798C55.8328 5.39065 55.9671 4.80132 56.2358 4.28998C56.5131 3.77865 56.8901 3.37998 57.3668 3.09398C57.8521 2.79932 58.4068 2.65198 59.0308 2.65198C59.6288 2.65198 60.1488 2.80365 60.5908 3.10698C61.0415 3.40165 61.3881 3.81765 61.6308 4.35498C61.8735 4.89232 61.9948 5.52498 61.9948 6.25298H60.9548C60.9548 5.69832 60.8811 5.22598 60.7338 4.83598C60.5865 4.43732 60.3655 4.12965 60.0708 3.91298C59.7848 3.69632 59.4338 3.58798 59.0178 3.58798C58.5931 3.58798 58.2161 3.69198 57.8868 3.89998C57.5661 4.09932 57.3191 4.38532 57.1458 4.75798C56.9725 5.13065 56.8858 5.56832 56.8858 6.07098C56.8858 6.56498 56.9811 6.99398 57.1718 7.35798C57.3625 7.71332 57.6268 7.99498 57.9648 8.20298C58.3028 8.40232 58.6841 8.50198 59.1088 8.50198C59.5595 8.50198 59.9408 8.39365 60.2528 8.17698C60.5648 7.96032 60.8118 7.67865 60.9938 7.33198L61.9038 7.78698C61.7391 8.12498 61.5181 8.41965 61.2408 8.67098C60.9721 8.92232 60.6515 9.11732 60.2788 9.25598C59.9148 9.39465 59.5075 9.46398 59.0568 9.46398ZM56.5218 6.25298L56.5348 5.35598H61.3578V6.25298H56.5218ZM65.1304 9.30798L67.7824 2.80798H68.8744L66.1574 9.30798H65.1304ZM65.0654 9.30798L62.3484 2.80798H63.4274L66.0794 9.30798H65.0654ZM72.59 9.46398C71.9573 9.46398 71.3983 9.32098 70.913 9.03498C70.4277 8.74032 70.0463 8.33732 69.769 7.82598C69.5003 7.31465 69.366 6.72532 69.366 6.05798C69.366 5.39065 69.5003 4.80132 69.769 4.28998C70.0463 3.77865 70.4233 3.37998 70.9 3.09398C71.3853 2.79932 71.94 2.65198 72.564 2.65198C73.162 2.65198 73.682 2.80365 74.124 3.10698C74.5747 3.40165 74.9213 3.81765 75.164 4.35498C75.4067 4.89232 75.528 5.52498 75.528 6.25298H74.488C74.488 5.69832 74.4143 5.22598 74.267 4.83598C74.1197 4.43732 73.8987 4.12965 73.604 3.91298C73.318 3.69632 72.967 3.58798 72.551 3.58798C72.1263 3.58798 71.7493 3.69198 71.42 3.89998C71.0993 4.09932 70.8523 4.38532 70.679 4.75798C70.5057 5.13065 70.419 5.56832 70.419 6.07098C70.419 6.56498 70.5143 6.99398 70.705 7.35798C70.8957 7.71332 71.16 7.99498 71.498 8.20298C71.836 8.40232 72.2173 8.50198 72.642 8.50198C73.0927 8.50198 73.474 8.39365 73.786 8.17698C74.098 7.96032 74.345 7.67865 74.527 7.33198L75.437 7.78698C75.2723 8.12498 75.0513 8.41965 74.774 8.67098C74.5053 8.92232 74.1847 9.11732 73.812 9.25598C73.448 9.39465 73.0407 9.46398 72.59 9.46398ZM70.055 6.25298L70.068 5.35598H74.891V6.25298H70.055ZM76.8397 9.30798V0.207983H77.8797V9.30798H76.8397ZM82.5691 9.46398C81.9365 9.46398 81.3731 9.32098 80.8791 9.03498C80.3938 8.74032 80.0125 8.33732 79.7351 7.82598C79.4578 7.31465 79.3191 6.72532 79.3191 6.05798C79.3191 5.39065 79.4535 4.80132 79.7221 4.28998C79.9995 3.77865 80.3808 3.37998 80.8661 3.09398C81.3601 2.79932 81.9191 2.65198 82.5431 2.65198C83.1845 2.65198 83.7478 2.79932 84.2331 3.09398C84.7271 3.37998 85.1085 3.77865 85.3771 4.28998C85.6545 4.80132 85.7931 5.39065 85.7931 6.05798C85.7931 6.72532 85.6545 7.31465 85.3771 7.82598C85.1085 8.33732 84.7315 8.74032 84.2461 9.03498C83.7608 9.32098 83.2018 9.46398 82.5691 9.46398ZM82.5691 8.50198C83.0025 8.50198 83.3795 8.39798 83.7001 8.18998C84.0208 7.98198 84.2721 7.69598 84.4541 7.33198C84.6448 6.96798 84.7401 6.54332 84.7401 6.05798C84.7401 5.57265 84.6448 5.14798 84.4541 4.78398C84.2721 4.41998 84.0165 4.13398 83.6871 3.92598C83.3578 3.71798 82.9765 3.61398 82.5431 3.61398C82.1185 3.61398 81.7415 3.71798 81.4121 3.92598C81.0915 4.13398 80.8358 4.41998 80.6451 4.78398C80.4631 5.14798 80.3721 5.57265 80.3721 6.05798C80.3721 6.53465 80.4631 6.95932 80.6451 7.33198C80.8358 7.69598 81.0958 7.98198 81.4251 8.18998C81.7631 8.39798 82.1445 8.50198 82.5691 8.50198ZM87.3021 11.908V2.80798H88.2771L88.3421 4.00398V11.908H87.3021ZM90.5391 9.46398C89.9931 9.46398 89.5121 9.32098 89.0961 9.03498C88.6888 8.74898 88.3725 8.35032 88.1471 7.83898C87.9218 7.31898 87.8091 6.72532 87.8091 6.05798C87.8091 5.38198 87.9218 4.78832 88.1471 4.27698C88.3725 3.76565 88.6888 3.36698 89.0961 3.08098C89.5121 2.79498 89.9931 2.65198 90.5391 2.65198C91.1198 2.65198 91.6311 2.79498 92.0731 3.08098C92.5151 3.36698 92.8575 3.76565 93.1001 4.27698C93.3515 4.78832 93.4771 5.38198 93.4771 6.05798C93.4771 6.72532 93.3515 7.31898 93.1001 7.83898C92.8575 8.35032 92.5151 8.74898 92.0731 9.03498C91.6311 9.32098 91.1198 9.46398 90.5391 9.46398ZM90.3051 8.51498C90.7125 8.51498 91.0721 8.41098 91.3841 8.20298C91.7048 7.99498 91.9561 7.70465 92.1381 7.33198C92.3288 6.95932 92.4241 6.53465 92.4241 6.05798C92.4241 5.58132 92.3331 5.15665 92.1511 4.78398C91.9778 4.41132 91.7308 4.12098 91.4101 3.91298C91.0895 3.70498 90.7255 3.60098 90.3181 3.60098C89.9368 3.60098 89.5945 3.70498 89.2911 3.91298C88.9965 4.12098 88.7625 4.41132 88.5891 4.78398C88.4245 5.15665 88.3421 5.58132 88.3421 6.05798C88.3421 6.53465 88.4245 6.95932 88.5891 7.33198C88.7625 7.70465 88.9965 7.99498 89.2911 8.20298C89.5858 8.41098 89.9238 8.51498 90.3051 8.51498ZM97.7648 9.46398C97.1321 9.46398 96.5731 9.32098 96.0878 9.03498C95.6025 8.74032 95.2211 8.33732 94.9438 7.82598C94.6751 7.31465 94.5408 6.72532 94.5408 6.05798C94.5408 5.39065 94.6751 4.80132 94.9438 4.28998C95.2211 3.77865 95.5981 3.37998 96.0748 3.09398C96.5601 2.79932 97.1148 2.65198 97.7388 2.65198C98.3368 2.65198 98.8568 2.80365 99.2988 3.10698C99.7495 3.40165 100.096 3.81765 100.339 4.35498C100.581 4.89232 100.703 5.52498 100.703 6.25298H99.6628C99.6628 5.69832 99.5891 5.22598 99.4418 4.83598C99.2945 4.43732 99.0735 4.12965 98.7788 3.91298C98.4928 3.69632 98.1418 3.58798 97.7258 3.58798C97.3011 3.58798 96.9241 3.69198 96.5948 3.89998C96.2741 4.09932 96.0271 4.38532 95.8538 4.75798C95.6805 5.13065 95.5938 5.56832 95.5938 6.07098C95.5938 6.56498 95.6891 6.99398 95.8798 7.35798C96.0705 7.71332 96.3348 7.99498 96.6728 8.20298C97.0108 8.40232 97.3921 8.50198 97.8168 8.50198C98.2675 8.50198 98.6488 8.39365 98.9608 8.17698C99.2728 7.96032 99.5198 7.67865 99.7018 7.33198L100.612 7.78698C100.447 8.12498 100.226 8.41965 99.9488 8.67098C99.6801 8.92232 99.3595 9.11732 98.9868 9.25598C98.6228 9.39465 98.2155 9.46398 97.7648 9.46398ZM95.2298 6.25298L95.2428 5.35598H100.066V6.25298H95.2298ZM102.586 5.78498C102.586 5.08298 102.721 4.51532 102.989 4.08198C103.258 3.63998 103.6 3.31498 104.016 3.10698C104.441 2.89032 104.887 2.78198 105.355 2.78198V3.75698C104.974 3.75698 104.606 3.82198 104.25 3.95198C103.904 4.07332 103.618 4.27698 103.392 4.56298C103.167 4.84898 103.054 5.23898 103.054 5.73298L102.586 5.78498ZM102.014 9.30798V2.80798H103.054V9.30798H102.014ZM116.223 9.30798L112.57 0.207983H113.675L117.38 9.30798H116.223ZM108.826 9.30798L112.531 0.207983H113.649L109.996 9.30798H108.826ZM110.581 6.72098V5.73298H115.638V6.72098H110.581ZM119.431 7.21498L118.768 6.49998L122.226 2.80798H123.539L119.431 7.21498ZM118.417 9.30798V0.207983H119.457V9.30798H118.417ZM122.512 9.30798L120.042 5.57698L120.718 4.84898L123.799 9.30798H122.512ZM128.591 9.30798L128.526 8.24198V5.87598C128.526 5.36465 128.465 4.94432 128.344 4.61498C128.231 4.27698 128.053 4.02565 127.811 3.86098C127.577 3.68765 127.265 3.60098 126.875 3.60098C126.502 3.60098 126.177 3.67465 125.9 3.82198C125.631 3.96932 125.41 4.19898 125.237 4.51098L124.301 4.13398C124.474 3.83065 124.682 3.56632 124.925 3.34098C125.167 3.11565 125.449 2.94665 125.77 2.83398C126.099 2.71265 126.472 2.65198 126.888 2.65198C127.486 2.65198 127.984 2.76898 128.383 3.00298C128.781 3.23698 129.08 3.58798 129.28 4.05598C129.479 4.51532 129.574 5.09165 129.566 5.78498L129.553 9.30798H128.591ZM126.641 9.46398C125.878 9.46398 125.28 9.29065 124.847 8.94398C124.422 8.58865 124.21 8.09898 124.21 7.47498C124.21 6.81632 124.426 6.31365 124.86 5.96698C125.302 5.61165 125.917 5.43398 126.706 5.43398H128.565V6.30498H126.94C126.333 6.30498 125.9 6.40465 125.64 6.60398C125.388 6.80332 125.263 7.08932 125.263 7.46198C125.263 7.79998 125.388 8.06865 125.64 8.26798C125.891 8.45865 126.242 8.55398 126.693 8.55398C127.065 8.55398 127.39 8.46732 127.668 8.29398C127.945 8.12065 128.157 7.88665 128.305 7.59198C128.452 7.28865 128.526 6.94632 128.526 6.56498H129.163C129.163 7.44898 128.946 8.15532 128.513 8.68398C128.079 9.20398 127.455 9.46398 126.641 9.46398ZM136.024 9.30798L135.972 8.09898V0.207983H137.012V9.30798H136.024ZM133.775 9.46398C133.194 9.46398 132.683 9.32098 132.241 9.03498C131.799 8.74898 131.452 8.35032 131.201 7.83898C130.958 7.31898 130.837 6.72532 130.837 6.05798C130.837 5.38198 130.958 4.78832 131.201 4.27698C131.452 3.76565 131.799 3.36698 132.241 3.08098C132.683 2.79498 133.194 2.65198 133.775 2.65198C134.321 2.65198 134.797 2.79498 135.205 3.08098C135.621 3.36698 135.941 3.76565 136.167 4.27698C136.392 4.78832 136.505 5.38198 136.505 6.05798C136.505 6.72532 136.392 7.31898 136.167 7.83898C135.941 8.35032 135.621 8.74898 135.205 9.03498C134.797 9.32098 134.321 9.46398 133.775 9.46398ZM134.009 8.51498C134.39 8.51498 134.728 8.41098 135.023 8.20298C135.317 7.99498 135.547 7.70465 135.712 7.33198C135.885 6.95932 135.972 6.53465 135.972 6.05798C135.972 5.58132 135.885 5.15665 135.712 4.78398C135.547 4.41132 135.317 4.12098 135.023 3.91298C134.728 3.70498 134.386 3.60098 133.996 3.60098C133.588 3.60098 133.224 3.70498 132.904 3.91298C132.592 4.12098 132.345 4.41132 132.163 4.78398C131.981 5.15665 131.89 5.58132 131.89 6.05798C131.89 6.53465 131.981 6.95932 132.163 7.33198C132.345 7.70465 132.596 7.99498 132.917 8.20298C133.237 8.41098 133.601 8.51498 134.009 8.51498ZM141.678 9.46398C141.045 9.46398 140.486 9.32098 140.001 9.03498C139.516 8.74032 139.134 8.33732 138.857 7.82598C138.588 7.31465 138.454 6.72532 138.454 6.05798C138.454 5.39065 138.588 4.80132 138.857 4.28998C139.134 3.77865 139.511 3.37998 139.988 3.09398C140.473 2.79932 141.028 2.65198 141.652 2.65198C142.25 2.65198 142.77 2.80365 143.212 3.10698C143.663 3.40165 144.009 3.81765 144.252 4.35498C144.495 4.89232 144.616 5.52498 144.616 6.25298H143.576C143.576 5.69832 143.502 5.22598 143.355 4.83598C143.208 4.43732 142.987 4.12965 142.692 3.91298C142.406 3.69632 142.055 3.58798 141.639 3.58798C141.214 3.58798 140.837 3.69198 140.508 3.89998C140.187 4.09932 139.94 4.38532 139.767 4.75798C139.594 5.13065 139.507 5.56832 139.507 6.07098C139.507 6.56498 139.602 6.99398 139.793 7.35798C139.984 7.71332 140.248 7.99498 140.586 8.20298C140.924 8.40232 141.305 8.50198 141.73 8.50198C142.181 8.50198 142.562 8.39365 142.874 8.17698C143.186 7.96032 143.433 7.67865 143.615 7.33198L144.525 7.78698C144.36 8.12498 144.139 8.41965 143.862 8.67098C143.593 8.92232 143.273 9.11732 142.9 9.25598C142.536 9.39465 142.129 9.46398 141.678 9.46398ZM139.143 6.25298L139.156 5.35598H143.979V6.25298H139.143ZM145.928 9.30798V2.80798H146.903L146.968 4.00398V9.30798H145.928ZM150.491 9.30798V5.97998L151.531 5.58998V9.30798H150.491ZM155.067 9.30798V5.97998L156.107 5.58998V9.30798H155.067ZM150.491 5.97998C150.491 5.33865 150.417 4.84898 150.27 4.51098C150.122 4.17298 149.919 3.94332 149.659 3.82198C149.399 3.69198 149.104 3.62698 148.775 3.62698C148.203 3.62698 147.756 3.83065 147.436 4.23798C147.124 4.63665 146.968 5.20432 146.968 5.94098H146.461C146.461 5.25632 146.56 4.66698 146.76 4.17298C146.959 3.67898 147.245 3.30198 147.618 3.04198C147.999 2.78198 148.458 2.65198 148.996 2.65198C149.784 2.65198 150.404 2.89465 150.855 3.37998C151.314 3.86532 151.539 4.60198 151.531 5.58998L150.491 5.97998ZM155.067 5.97998C155.067 5.33865 154.989 4.84898 154.833 4.51098C154.685 4.17298 154.482 3.94332 154.222 3.82198C153.962 3.69198 153.667 3.62698 153.338 3.62698C152.766 3.62698 152.319 3.83065 151.999 4.23798C151.687 4.63665 151.531 5.20432 151.531 5.94098H151.024C151.024 5.25632 151.123 4.66698 151.323 4.17298C151.522 3.67898 151.812 3.30198 152.194 3.04198C152.575 2.78198 153.034 2.65198 153.572 2.65198C154.352 2.65198 154.967 2.89465 155.418 3.37998C155.877 3.86532 156.107 4.60198 156.107 5.58998L155.067 5.97998ZM157.812 9.30798L157.838 2.80798H158.878L158.852 9.30798H157.812ZM158.345 1.29998C158.172 1.29998 158.02 1.23498 157.89 1.10498C157.76 0.974983 157.695 0.823316 157.695 0.649983C157.695 0.467983 157.76 0.316316 157.89 0.194983C158.02 0.0649831 158.172 -1.68681e-05 158.345 -1.68681e-05C158.527 -1.68681e-05 158.679 0.0649831 158.8 0.194983C158.93 0.316316 158.995 0.467983 158.995 0.649983C158.995 0.823316 158.93 0.974983 158.8 1.10498C158.679 1.23498 158.527 1.29998 158.345 1.29998ZM163.615 9.46398C162.983 9.46398 162.424 9.32098 161.938 9.03498C161.453 8.74032 161.072 8.33732 160.794 7.82598C160.526 7.31465 160.391 6.72532 160.391 6.05798C160.391 5.39065 160.526 4.80132 160.794 4.28998C161.072 3.77865 161.449 3.37998 161.925 3.09398C162.411 2.79932 162.965 2.65198 163.589 2.65198C164.187 2.65198 164.707 2.80365 165.149 3.10698C165.6 3.40165 165.947 3.81765 166.189 4.35498C166.432 4.89232 166.553 5.52498 166.553 6.25298H165.513C165.513 5.69832 165.44 5.22598 165.292 4.83598C165.145 4.43732 164.924 4.12965 164.629 3.91298C164.343 3.69632 163.992 3.58798 163.576 3.58798C163.152 3.58798 162.775 3.69198 162.445 3.89998C162.125 4.09932 161.878 4.38532 161.704 4.75798C161.531 5.13065 161.444 5.56832 161.444 6.07098C161.444 6.56498 161.54 6.99398 161.73 7.35798C161.921 7.71332 162.185 7.99498 162.523 8.20298C162.861 8.40232 163.243 8.50198 163.667 8.50198C164.118 8.50198 164.499 8.39365 164.811 8.17698C165.123 7.96032 165.37 7.67865 165.552 7.33198L166.462 7.78698C166.298 8.12498 166.077 8.41965 165.799 8.67098C165.531 8.92232 165.21 9.11732 164.837 9.25598C164.473 9.39465 164.066 9.46398 163.615 9.46398ZM161.08 6.25298L161.093 5.35598H165.916V6.25298H161.08ZM175.497 9.46398C174.57 9.46398 173.751 9.26465 173.04 8.86598C172.329 8.45865 171.77 7.90398 171.363 7.20198C170.964 6.49132 170.765 5.68098 170.765 4.77098C170.765 3.84365 170.964 3.02898 171.363 2.32698C171.77 1.61632 172.329 1.06165 173.04 0.662983C173.751 0.25565 174.57 0.0519832 175.497 0.0519832C175.982 0.0519832 176.455 0.134317 176.914 0.298983C177.373 0.454983 177.794 0.67165 178.175 0.948983C178.556 1.22632 178.864 1.54265 179.098 1.89798L178.227 2.49598C178.054 2.21865 177.82 1.97165 177.525 1.75498C177.23 1.52965 176.905 1.35632 176.55 1.23498C176.203 1.11365 175.852 1.05298 175.497 1.05298C174.795 1.05298 174.171 1.21332 173.625 1.53398C173.079 1.84598 172.65 2.27932 172.338 2.83398C172.026 3.38865 171.87 4.03432 171.87 4.77098C171.87 5.48165 172.022 6.11865 172.325 6.68198C172.637 7.23665 173.066 7.67432 173.612 7.99498C174.167 8.31565 174.795 8.47598 175.497 8.47598C176.086 8.47598 176.606 8.35465 177.057 8.11198C177.516 7.86065 177.876 7.51832 178.136 7.08498C178.396 6.64298 178.526 6.13598 178.526 5.56398L179.579 5.48598C179.579 6.28332 179.406 6.98098 179.059 7.57898C178.712 8.16832 178.231 8.63198 177.616 8.96998C177.001 9.29932 176.294 9.46398 175.497 9.46398ZM176.29 5.61598V4.66698H179.579V5.52498L179.059 5.61598H176.29ZM180.954 9.30798V2.80798H181.929L181.994 4.00398V9.30798H180.954ZM185.517 9.30798V5.97998L186.557 5.58998V9.30798H185.517ZM190.093 9.30798V5.97998L191.133 5.58998V9.30798H190.093ZM185.517 5.97998C185.517 5.33865 185.443 4.84898 185.296 4.51098C185.149 4.17298 184.945 3.94332 184.685 3.82198C184.425 3.69198 184.13 3.62698 183.801 3.62698C183.229 3.62698 182.783 3.83065 182.462 4.23798C182.15 4.63665 181.994 5.20432 181.994 5.94098H181.487C181.487 5.25632 181.587 4.66698 181.786 4.17298C181.985 3.67898 182.271 3.30198 182.644 3.04198C183.025 2.78198 183.485 2.65198 184.022 2.65198C184.811 2.65198 185.43 2.89465 185.881 3.37998C186.34 3.86532 186.566 4.60198 186.557 5.58998L185.517 5.97998ZM190.093 5.97998C190.093 5.33865 190.015 4.84898 189.859 4.51098C189.712 4.17298 189.508 3.94332 189.248 3.82198C188.988 3.69198 188.693 3.62698 188.364 3.62698C187.792 3.62698 187.346 3.83065 187.025 4.23798C186.713 4.63665 186.557 5.20432 186.557 5.94098H186.05C186.05 5.25632 186.15 4.66698 186.349 4.17298C186.548 3.67898 186.839 3.30198 187.22 3.04198C187.601 2.78198 188.061 2.65198 188.598 2.65198C189.378 2.65198 189.993 2.89465 190.444 3.37998C190.903 3.86532 191.133 4.60198 191.133 5.58998L190.093 5.97998ZM192.773 9.30798V0.207983H193.813V8.09898L193.761 9.30798H192.773ZM196.01 9.46398C195.464 9.46398 194.983 9.32098 194.567 9.03498C194.16 8.74898 193.844 8.35032 193.618 7.83898C193.393 7.31898 193.28 6.72532 193.28 6.05798C193.28 5.38198 193.393 4.78832 193.618 4.27698C193.844 3.76565 194.16 3.36698 194.567 3.08098C194.983 2.79498 195.464 2.65198 196.01 2.65198C196.591 2.65198 197.102 2.79498 197.544 3.08098C197.986 3.36698 198.329 3.76565 198.571 4.27698C198.823 4.78832 198.948 5.38198 198.948 6.05798C198.948 6.72532 198.823 7.31898 198.571 7.83898C198.329 8.35032 197.986 8.74898 197.544 9.03498C197.102 9.32098 196.591 9.46398 196.01 9.46398ZM195.776 8.51498C196.184 8.51498 196.543 8.41098 196.855 8.20298C197.176 7.99498 197.427 7.70465 197.609 7.33198C197.8 6.95932 197.895 6.53465 197.895 6.05798C197.895 5.58132 197.804 5.15665 197.622 4.78398C197.449 4.41132 197.202 4.12098 196.881 3.91298C196.561 3.70498 196.197 3.60098 195.789 3.60098C195.408 3.60098 195.066 3.70498 194.762 3.91298C194.468 4.12098 194.234 4.41132 194.06 4.78398C193.896 5.15665 193.813 5.58132 193.813 6.05798C193.813 6.53465 193.896 6.95932 194.06 7.33198C194.234 7.70465 194.468 7.99498 194.762 8.20298C195.057 8.41098 195.395 8.51498 195.776 8.51498ZM206.942 9.30798V0.207983H208.034V9.30798H206.942ZM200.689 9.30798V0.207983H201.794V9.30798H200.689ZM201.664 5.12198V4.12098H207.176V5.12198H201.664Z" fill="#627B84"/>
</svg>
